<?xml version="1.0" encoding="UTF-8"?>
<svg width="180" height="50" viewBox="0 0 180 50" fill="none"
    xmlns="http://www.w3.org/2000/svg">
    <path d="M25 0C11.2 0 0 11.2 0 25C0 38.8 11.2 50 25 50C38.8 50 50 38.8 50 25C50 11.2 38.8 0 25 0ZM25 8C30 8 34 12 34 17C34 22 30 26 25 26C20 26 16 22 16 17C16 12 20 8 25 8ZM25 43C18.5 43 12.7 39.8 9 34.7C9.1 29.8 19 27 25 27C30.9 27 40.9 29.8 41 34.7C37.3 39.8 31.5 43 25 43Z" fill="#2563EB"/>
    <path d="M65 15H77V19H69.5V23H76V27H69.5V35H65V15Z" fill="#111827"/>
    <path d="M79 15H83.5V35H79V15Z" fill="#111827"/>
    <path d="M86 15H90.5L98 27.5V15H102.5V35H98.5L90.5 22V35H86V15Z" fill="#111827"/>
    <path d="M114.5 15H119L126 35H121L119.5 30H113.5L112 35H107.5L114.5 15ZM118.5 26L116.5 20L114.5 26H118.5Z" fill="#111827"/>
    <path d="M127 15H131.5V31H139V35H127V15Z" fill="#111827"/>
</svg> 